<svg id="visual" viewBox="0 0 960 540" width="960" height="540" xmlns="http://www.w3.org/2000/svg" xmlns:xlink="http://www.w3.org/1999/xlink" version="1.1"><path d="M0 85L42 85L42 208L83 208L83 268L125 268L125 38L167 38L167 49L209 49L209 183L250 183L250 250L292 250L292 283L334 283L334 18L376 18L376 57L417 57L417 24L459 24L459 260L501 260L501 164L543 164L543 165L584 165L584 151L626 151L626 179L668 179L668 305L710 305L710 47L751 47L751 144L793 144L793 254L835 254L835 255L877 255L877 290L918 290L918 204L960 204L960 111L960 541L960 541L918 541L918 541L877 541L877 541L835 541L835 541L793 541L793 541L751 541L751 541L710 541L710 541L668 541L668 541L626 541L626 541L584 541L584 541L543 541L543 541L501 541L501 541L459 541L459 541L417 541L417 541L376 541L376 541L334 541L334 541L292 541L292 541L250 541L250 541L209 541L209 541L167 541L167 541L125 541L125 541L83 541L83 541L42 541L42 541L0 541Z" fill="#ffce5d"></path><path d="M0 112L42 112L42 385L83 385L83 160L125 160L125 198L167 198L167 365L209 365L209 130L250 130L250 171L292 171L292 319L334 319L334 223L376 223L376 234L417 234L417 124L459 124L459 279L501 279L501 126L543 126L543 274L584 274L584 123L626 123L626 182L668 182L668 304L710 304L710 352L751 352L751 162L793 162L793 385L835 385L835 220L877 220L877 212L918 212L918 314L960 314L960 154L960 541L960 541L918 541L918 541L877 541L877 541L835 541L835 541L793 541L793 541L751 541L751 541L710 541L710 541L668 541L668 541L626 541L626 541L584 541L584 541L543 541L543 541L501 541L501 541L459 541L459 541L417 541L417 541L376 541L376 541L334 541L334 541L292 541L292 541L250 541L250 541L209 541L209 541L167 541L167 541L125 541L125 541L83 541L83 541L42 541L42 541L0 541Z" fill="#aa8b46"></path><path d="M0 365L42 365L42 280L83 280L83 282L125 282L125 377L167 377L167 387L209 387L209 398L250 398L250 263L292 263L292 425L334 425L334 433L376 433L376 373L417 373L417 360L459 360L459 249L501 249L501 358L543 358L543 346L584 346L584 275L626 275L626 442L668 442L668 448L710 448L710 394L751 394L751 314L793 314L793 287L835 287L835 454L877 454L877 230L918 230L918 234L960 234L960 410L960 541L960 541L918 541L918 541L877 541L877 541L835 541L835 541L793 541L793 541L751 541L751 541L710 541L710 541L668 541L668 541L626 541L626 541L584 541L584 541L543 541L543 541L501 541L501 541L459 541L459 541L417 541L417 541L376 541L376 541L334 541L334 541L292 541L292 541L250 541L250 541L209 541L209 541L167 541L167 541L125 541L125 541L83 541L83 541L42 541L42 541L0 541Z" fill="#5c4d2e"></path><path d="M0 430L42 430L42 452L83 452L83 534L125 534L125 458L167 458L167 366L209 366L209 395L250 395L250 509L292 509L292 414L334 414L334 385L376 385L376 531L417 531L417 398L459 398L459 358L501 358L501 468L543 468L543 380L584 380L584 421L626 421L626 462L668 462L668 419L710 419L710 519L751 519L751 504L793 504L793 490L835 490L835 445L877 445L877 505L918 505L918 491L960 491L960 396L960 541L960 541L918 541L918 541L877 541L877 541L835 541L835 541L793 541L793 541L751 541L751 541L710 541L710 541L668 541L668 541L626 541L626 541L584 541L584 541L543 541L543 541L501 541L501 541L459 541L459 541L417 541L417 541L376 541L376 541L334 541L334 541L292 541L292 541L250 541L250 541L209 541L209 541L167 541L167 541L125 541L125 541L83 541L83 541L42 541L42 541L0 541Z" fill="#171717"></path></svg>