<svg id="visual" viewBox="0 0 960 540" width="960" height="540" xmlns="http://www.w3.org/2000/svg" xmlns:xlink="http://www.w3.org/1999/xlink" version="1.1"><path d="M0 257L42 257L42 478L83 478L83 302L125 302L125 499L167 499L167 428L209 428L209 410L250 410L250 480L292 480L292 270L334 270L334 425L376 425L376 472L417 472L417 534L459 534L459 277L501 277L501 452L543 452L543 334L584 334L584 352L626 352L626 328L668 328L668 434L710 434L710 395L751 395L751 383L793 383L793 498L835 498L835 469L877 469L877 398L918 398L918 232L960 232L960 532L960 0L960 0L918 0L918 0L877 0L877 0L835 0L835 0L793 0L793 0L751 0L751 0L710 0L710 0L668 0L668 0L626 0L626 0L584 0L584 0L543 0L543 0L501 0L501 0L459 0L459 0L417 0L417 0L376 0L376 0L334 0L334 0L292 0L292 0L250 0L250 0L209 0L209 0L167 0L167 0L125 0L125 0L83 0L83 0L42 0L42 0L0 0Z" fill="#ffce5d"></path><path d="M0 237L42 237L42 383L83 383L83 427L125 427L125 296L167 296L167 181L209 181L209 329L250 329L250 282L292 282L292 241L334 241L334 335L376 335L376 345L417 345L417 163L459 163L459 426L501 426L501 274L543 274L543 234L584 234L584 406L626 406L626 318L668 318L668 261L710 261L710 246L751 246L751 346L793 346L793 237L835 237L835 426L877 426L877 375L918 375L918 162L960 162L960 367L960 0L960 0L918 0L918 0L877 0L877 0L835 0L835 0L793 0L793 0L751 0L751 0L710 0L710 0L668 0L668 0L626 0L626 0L584 0L584 0L543 0L543 0L501 0L501 0L459 0L459 0L417 0L417 0L376 0L376 0L334 0L334 0L292 0L292 0L250 0L250 0L209 0L209 0L167 0L167 0L125 0L125 0L83 0L83 0L42 0L42 0L0 0Z" fill="#aa8b46"></path><path d="M0 292L42 292L42 132L83 132L83 177L125 177L125 267L167 267L167 156L209 156L209 96L250 96L250 80L292 80L292 187L334 187L334 211L376 211L376 196L417 196L417 76L459 76L459 289L501 289L501 320L543 320L543 312L584 312L584 297L626 297L626 83L668 83L668 281L710 281L710 127L751 127L751 272L793 272L793 156L835 156L835 268L877 268L877 311L918 311L918 242L960 242L960 214L960 0L960 0L918 0L918 0L877 0L877 0L835 0L835 0L793 0L793 0L751 0L751 0L710 0L710 0L668 0L668 0L626 0L626 0L584 0L584 0L543 0L543 0L501 0L501 0L459 0L459 0L417 0L417 0L376 0L376 0L334 0L334 0L292 0L292 0L250 0L250 0L209 0L209 0L167 0L167 0L125 0L125 0L83 0L83 0L42 0L42 0L0 0Z" fill="#5c4d2e"></path><path d="M0 64L42 64L42 144L83 144L83 29L125 29L125 191L167 191L167 61L209 61L209 100L250 100L250 141L292 141L292 59L334 59L334 134L376 134L376 175L417 175L417 63L459 63L459 170L501 170L501 170L543 170L543 58L584 58L584 144L626 144L626 181L668 181L668 188L710 188L710 33L751 33L751 161L793 161L793 148L835 148L835 134L877 134L877 121L918 121L918 198L960 198L960 17L960 0L960 0L918 0L918 0L877 0L877 0L835 0L835 0L793 0L793 0L751 0L751 0L710 0L710 0L668 0L668 0L626 0L626 0L584 0L584 0L543 0L543 0L501 0L501 0L459 0L459 0L417 0L417 0L376 0L376 0L334 0L334 0L292 0L292 0L250 0L250 0L209 0L209 0L167 0L167 0L125 0L125 0L83 0L83 0L42 0L42 0L0 0Z" fill="#171717"></path></svg>